<?xml version="1.0" encoding="UTF-8" standalone="no"?>
<svg
   xmlns:dc="http://purl.org/dc/elements/1.1/"
   xmlns:cc="http://creativecommons.org/ns#"
   xmlns:rdf="http://www.w3.org/1999/02/22-rdf-syntax-ns#"
   xmlns:svg="http://www.w3.org/2000/svg"
   xmlns="http://www.w3.org/2000/svg"
   style="fill:#364039"
   height="89.999771"
   width="53"
   id="svg2"
   xml:space="preserve"
   enable-background="new 0 0 100 100"
   viewBox="0 0 53 89.999771"
   y="0px"
   x="0px"
   version="1.1"><metadata
     id="metadata10"><rdf:RDF><cc:Work
         rdf:about=""><dc:format>image/svg+xml</dc:format><dc:type
           rdf:resource="http://purl.org/dc/dcmitype/StillImage" /><dc:title></dc:title></cc:Work></rdf:RDF></metadata><defs
     id="defs8" /><path
     id="path4"
     d="M 52.719,23.554771 30.219,0.30477136 c -0.342,-0.355 -0.892,-0.405 -1.293,-0.123 L 0.426,20.181771 c -0.267,0.188 -0.426,0.492 -0.426,0.818 l 0,43.122 c 0,0.244 0.09,0.48 0.251,0.663 l 8.75,9.878 c 0.037,0.041 0.076,0.079 0.119,0.113 l 18.5,15 c 0.184,0.149 0.406,0.224 0.63,0.224 0.21,0 0.421,-0.066 0.599,-0.199 l 23.75,-17.75 c 0.253,-0.188 0.401,-0.485 0.401,-0.801 l 0,-47 c 0,-0.26 -0.101,-0.509 -0.281,-0.695 z m -2.002,47.405 -14.467,2.455 0,-46.236 14.75,-2.269 0,45.839 -0.283,0.211 z m -14.587,-44.769 -5.477,-22.5599996 19.71,20.3649996 -14.233,2.195 z m -6.817,-23.8379996 5.801,23.8969996 -23.624,0 17.429,-23.6199996 0.394,-0.277 z M 10.368,26.085771 2.382,21.251771 26.342,4.4387714 10.368,26.085771 Z m 0.076,47.189 -0.18,-0.203 0.728,-45.822 24.258,-0.006 0,46.256 -24.528,0 -0.278,-0.225 z m 25.64,1.175 12.88,-2.179 -18.824,14.069 5.944,-11.89 z M 2,63.742771 l 0,-41.554 7.995,4.84 -0.713,44.935 -7.282,-8.221 z m 9.954,10.756 22.99,-0.006 -6.59,13.181 -0.079,0.059 -16.321,-13.234 z" /></svg>
